<svg 
          width="11.249725341796875" 
          height="13.034482955932617" fill="none" 
          xmlns="http://www.w3.org/2000/svg">
          <path d="M 5.349101659921871 10.750345392837906 L 1.0432409601253312 12.953792932538557 C 0.6994520163511879 13.120686528261151 0.27591146945002265 13.002549000371744 0.08638300743513128 12.686897075258457 L 0.08638300743513128 12.686897075258457 C 0.03155000895750959 12.589117881747876 0.0019673616659456883 12.480711764398178 0 12.370345204264074 L 0 2.6068965467913388 C 0 0.7448275530866793 1.3621934224338474 0 3.3224232704760652 0 L 7.927302294832771 0 C 9.827728388558171 0 11.249725341796875 0.6951725382640461 11.249725341796875 2.482758732264853 L 11.249725341796875 12.370345204264074 C 11.249725341796875 12.546485498354064 11.17481639770881 12.715410978424156 11.041478353741695 12.839961016110983 C 10.908140239927093 12.96451105379781 10.727295217594701 13.034482955932617 10.538726641665562 13.034482955932617 C 10.41844784279624 13.032701035657546 10.300221114225053 13.005091866354554 10.193195031009964 12.953792932538557 L 5.860754512330459 10.750345392837906 C 5.7011071548311065 10.669782769749483 5.5087490174212235 10.669782769749483 5.349101659921871 10.750345392837906 Z" fill="rgb(255,255,255)"/>
        </svg>